<svg width="18" height="18" viewBox="0 0 18 18" fill="none" xmlns="http://www.w3.org/2000/svg">
<path d="M8.99996 17.3332C4.39746 17.3332 0.666626 13.6023 0.666626 8.99984C0.666626 4.39734 4.39746 0.666504 8.99996 0.666504C13.6025 0.666504 17.3333 4.39734 17.3333 8.99984C17.3283 13.5998 13.6 17.3282 8.99996 17.3332ZM8.16663 13.1665V14.8332H9.83329V13.1665H8.16663ZM8.99996 4.83317C9.44199 4.83317 9.86591 5.00877 10.1785 5.32133C10.491 5.63389 10.6666 6.05781 10.6666 6.49984C10.668 6.71871 10.6252 6.93561 10.5407 7.13752C10.4562 7.33943 10.3318 7.52219 10.175 7.67484L9.14163 8.72484C8.51782 9.35127 8.1673 10.1991 8.16663 11.0832V11.4998H9.83329C9.80135 11.058 9.87284 10.6148 10.0421 10.2054C10.2113 9.79607 10.4737 9.43178 10.8083 9.1415L11.5583 8.37484C11.805 8.12908 12.0006 7.83682 12.1336 7.51497C12.2666 7.19312 12.3345 6.84809 12.3333 6.49984C12.3333 5.61578 11.9821 4.76794 11.357 4.14281C10.7319 3.51769 9.88401 3.1665 8.99996 3.1665C8.1159 3.1665 7.26806 3.51769 6.64294 4.14281C6.01782 4.76794 5.66663 5.61578 5.66663 6.49984H7.33329C7.33329 6.05781 7.50889 5.63389 7.82145 5.32133C8.13401 5.00877 8.55793 4.83317 8.99996 4.83317Z" fill="white"/>
</svg>
